<svg width="40" height="40" viewBox="0 0 40 40" fill="none" xmlns="http://www.w3.org/2000/svg">
<circle cx="20" cy="20" r="20" fill="#F7F7F7"/>
<path d="M23.0892 29.5474C23.1531 29.5733 23.2107 29.5862 23.2619 29.5862C23.3132 29.5862 23.3707 29.5733 23.4346 29.5474L29.2401 27.7155C29.2202 27.4048 29.1293 27.1809 28.9676 27.0439C28.8059 26.9069 28.6229 26.8384 28.4186 26.8384H23.6822C23.2603 26.8384 22.8776 26.8214 22.5342 26.7873C22.1915 26.7533 21.8405 26.6718 21.4811 26.543L19.7702 25.9787C19.6338 25.9331 19.5356 25.8414 19.4758 25.7038C19.4159 25.5661 19.4085 25.4298 19.4538 25.2949C19.4984 25.1599 19.5839 25.0611 19.7103 24.9984C19.8368 24.9357 19.9689 24.9279 20.1066 24.9749L21.6538 25.5484C21.9746 25.6601 22.3299 25.7317 22.7199 25.763C23.1099 25.7944 23.592 25.8121 24.1663 25.8162H24.4258C24.4258 25.4979 24.3683 25.2403 24.2531 25.0434C24.1387 24.8471 23.9746 24.7101 23.761 24.6324L18.0174 22.4745C17.9795 22.4609 17.9445 22.4506 17.9126 22.4438C17.8806 22.4377 17.8454 22.4346 17.8068 22.4346H15.7105V27.3496L23.0892 29.5474ZM22.8337 30.5574L15.7105 28.4229C15.6161 28.8264 15.4147 29.148 15.1066 29.3879C14.7992 29.6278 14.4635 29.7477 14.0995 29.7477H13.3308C12.8876 29.7477 12.5083 29.5859 12.1929 29.2622C11.8768 28.9391 11.7188 28.5507 11.7188 28.0968V23.0643C11.7188 22.6098 11.8765 22.221 12.1919 21.8979C12.508 21.5742 12.8876 21.4124 13.3308 21.4124H17.7858C17.879 21.4124 17.9745 21.4233 18.0723 21.4451C18.1708 21.4669 18.2623 21.4921 18.3468 21.5207L24.1164 23.6848C24.4731 23.8239 24.7802 24.0736 25.0377 24.4341C25.2959 24.7946 25.425 25.2553 25.425 25.8162H28.4196C29.0205 25.8162 29.481 26.0087 29.8011 26.3938C30.1212 26.7795 30.2812 27.2685 30.2812 27.8607C30.2812 28.0651 30.2273 28.2379 30.1195 28.379C30.0111 28.5193 29.853 28.625 29.6454 28.6959L23.772 30.5522C23.6276 30.5938 23.4745 30.6177 23.3128 30.6238C23.1518 30.6306 22.9924 30.6085 22.8347 30.5574H22.8337ZM12.716 28.0968C12.716 28.2801 12.7735 28.4307 12.8886 28.5486C13.0038 28.6665 13.1508 28.7255 13.3298 28.7255H14.0985C14.2775 28.7255 14.4245 28.6764 14.5397 28.5783C14.6548 28.4802 14.7123 28.3197 14.7123 28.0968V22.4346H13.3298C13.1508 22.4346 13.0038 22.4936 12.8886 22.6115C12.7735 22.7294 12.716 22.8803 12.716 23.0643V28.0968ZM22.7898 11.375C22.9535 11.375 23.1152 11.4016 23.2749 11.4547C23.4346 11.5079 23.5863 11.5829 23.7301 11.6796L28.6063 15.236C28.8212 15.3839 28.9876 15.5798 29.1054 15.8238C29.2232 16.0678 29.2821 16.3203 29.2821 16.5813V22.866C29.2821 23.0112 29.2341 23.1325 29.1383 23.2299C29.0425 23.3281 28.9237 23.3771 28.782 23.3771C28.6409 23.3771 28.5224 23.3281 28.4266 23.2299C28.3314 23.1332 28.2839 23.0125 28.2839 22.8681V16.5567C28.2839 16.4518 28.2616 16.3537 28.217 16.2623C28.1717 16.1703 28.1045 16.0916 28.0153 16.0262L23.1391 12.5465C23.0367 12.4681 22.9215 12.4289 22.7938 12.4289C22.666 12.4289 22.5509 12.4681 22.4484 12.5465L17.5722 16.0262C17.483 16.0916 17.4158 16.17 17.3706 16.2613C17.326 16.354 17.3037 16.4532 17.3037 16.5588V18.4653C17.3037 18.6097 17.2558 18.731 17.1599 18.8292C17.0641 18.9273 16.9453 18.9764 16.8036 18.9764C16.6625 18.9764 16.544 18.9273 16.4482 18.8292C16.3531 18.7304 16.3055 18.6087 16.3055 18.4642V16.5833C16.3055 16.3209 16.3644 16.0678 16.4822 15.8238C16.5999 15.5798 16.7663 15.3839 16.9813 15.236L21.8575 11.6796C22.0019 11.5829 22.1526 11.5079 22.3096 11.4547C22.466 11.4016 22.6261 11.375 22.7898 11.375ZM21.7956 16.9104C21.9034 16.9104 21.9975 16.8695 22.0781 16.7878C22.1586 16.706 22.1985 16.6092 22.1978 16.4974C22.1978 16.3877 22.1579 16.2916 22.0781 16.2092C21.9975 16.1267 21.9034 16.0855 21.7956 16.0855C21.6878 16.0855 21.5936 16.1264 21.5131 16.2082C21.4332 16.2913 21.3933 16.3877 21.3933 16.4974C21.3933 16.6079 21.4332 16.7043 21.5131 16.7867C21.5936 16.8692 21.6878 16.9104 21.7956 16.9104ZM23.792 16.9104C23.8998 16.9104 23.9939 16.8695 24.0745 16.7878C24.155 16.706 24.1949 16.6092 24.1942 16.4974C24.1942 16.3877 24.1543 16.2916 24.0745 16.2092C23.9939 16.1267 23.8998 16.0855 23.792 16.0855C23.6842 16.0855 23.59 16.1264 23.5095 16.2082C23.4296 16.2913 23.3897 16.3877 23.3897 16.4974C23.3897 16.6079 23.4296 16.7043 23.5095 16.7867C23.59 16.8692 23.6842 16.9104 23.792 16.9104ZM21.7956 18.9549C21.9034 18.9549 21.9975 18.914 22.0781 18.8322C22.1586 18.7505 22.1985 18.6537 22.1978 18.5419C22.1978 18.4322 22.1579 18.3361 22.0781 18.2537C21.9975 18.1712 21.9034 18.13 21.7956 18.13C21.6878 18.13 21.5936 18.1709 21.5131 18.2526C21.4332 18.3358 21.3933 18.4322 21.3933 18.5419C21.3933 18.6523 21.4332 18.7488 21.5131 18.8312C21.5936 18.9137 21.6878 18.9549 21.7956 18.9549ZM23.792 18.9549C23.8998 18.9549 23.9939 18.914 24.0745 18.8322C24.155 18.7505 24.1949 18.6537 24.1942 18.5419C24.1942 18.4322 24.1543 18.3361 24.0745 18.2537C23.9939 18.1712 23.8998 18.13 23.792 18.13C23.6842 18.13 23.59 18.1709 23.5095 18.2526C23.4296 18.3358 23.3897 18.4322 23.3897 18.5419C23.3897 18.6523 23.4296 18.7488 23.5095 18.8312C23.59 18.9137 23.6842 18.9549 23.792 18.9549Z" fill="#42526E" stroke="#42526E" stroke-width="0.2"/>
</svg>
