<svg width="20" height="20" viewBox="0 0 20 20" fill="none" xmlns="http://www.w3.org/2000/svg">
<path d="M10.0002 14.167C10.2363 14.167 10.4343 14.087 10.5943 13.927C10.7543 13.767 10.8341 13.5692 10.8335 13.3337V10.0003C10.8335 9.76421 10.7535 9.56616 10.5935 9.40616C10.4335 9.24616 10.2357 9.16644 10.0002 9.16699C9.76405 9.16699 9.566 9.24699 9.406 9.40699C9.246 9.56699 9.16627 9.76477 9.16683 10.0003V13.3337C9.16683 13.5698 9.24683 13.7678 9.40683 13.9278C9.56683 14.0878 9.76461 14.1675 10.0002 14.167ZM10.0002 7.50033C10.2363 7.50033 10.4343 7.42033 10.5943 7.26033C10.7543 7.10033 10.8341 6.90255 10.8335 6.66699C10.8335 6.43088 10.7535 6.23283 10.5935 6.07283C10.4335 5.91283 10.2357 5.8331 10.0002 5.83366C9.76405 5.83366 9.566 5.91366 9.406 6.07366C9.246 6.23366 9.16627 6.43144 9.16683 6.66699C9.16683 6.9031 9.24683 7.10116 9.40683 7.26116C9.56683 7.42116 9.76461 7.50088 10.0002 7.50033ZM10.0002 18.2712H9.79183C9.72238 18.2712 9.65988 18.2573 9.60433 18.2295C7.78488 17.66 6.28488 16.5314 5.10433 14.8437C3.92377 13.1559 3.3335 11.2914 3.3335 9.25033V5.31283C3.3335 4.9656 3.43433 4.6531 3.636 4.37533C3.83766 4.09755 4.09794 3.89616 4.41683 3.77116L9.41683 1.89616C9.61127 1.82671 9.80572 1.79199 10.0002 1.79199C10.1946 1.79199 10.3891 1.82671 10.5835 1.89616L15.5835 3.77116C15.9029 3.89616 16.1635 4.09755 16.3652 4.37533C16.5668 4.6531 16.6674 4.9656 16.6668 5.31283V9.25033C16.6668 11.292 16.0766 13.1567 14.896 14.8445C13.7154 16.5323 12.2154 17.6606 10.396 18.2295C10.3266 18.2573 10.1946 18.2712 10.0002 18.2712ZM10.0002 16.5837C11.4446 16.1253 12.6391 15.2087 13.5835 13.8337C14.5279 12.4587 15.0002 10.9309 15.0002 9.25033V5.31283L10.0002 3.43783L5.00016 5.31283V9.25033C5.00016 10.9309 5.47238 12.4587 6.41683 13.8337C7.36127 15.2087 8.55572 16.1253 10.0002 16.5837Z" fill="#7A869A"/>
</svg>
