<svg width="40" height="40" viewBox="0 0 40 40" fill="none" xmlns="http://www.w3.org/2000/svg">
<circle cx="20" cy="20" r="20" fill="#F7F7F7"/>
<path d="M18.5 18.75C18.5 19.0455 18.4418 19.3381 18.3287 19.611C18.2157 19.884 18.0499 20.1321 17.841 20.341C17.6321 20.5499 17.384 20.7157 17.111 20.8287C16.8381 20.9418 16.5455 21 16.25 21C15.9545 21 15.6619 20.9418 15.389 20.8287C15.116 20.7157 14.8679 20.5499 14.659 20.341C14.4501 20.1321 14.2843 19.884 14.1713 19.611C14.0582 19.3381 14 19.0455 14 18.75C14 18.1533 14.2371 17.581 14.659 17.159C15.081 16.7371 15.6533 16.5 16.25 16.5C16.8467 16.5 17.419 16.7371 17.841 17.159C18.2629 17.581 18.5 18.1533 18.5 18.75ZM17.25 18.75C17.25 18.4848 17.1446 18.2304 16.9571 18.0429C16.7696 17.8554 16.5152 17.75 16.25 17.75C15.9848 17.75 15.7304 17.8554 15.5429 18.0429C15.3554 18.2304 15.25 18.4848 15.25 18.75C15.25 19.0152 15.3554 19.2696 15.5429 19.4571C15.7304 19.6446 15.9848 19.75 16.25 19.75C16.5152 19.75 16.7696 19.6446 16.9571 19.4571C17.1446 19.2696 17.25 19.0152 17.25 18.75ZM16.25 26.5C16.8467 26.5 17.419 26.2629 17.841 25.841C18.2629 25.419 18.5 24.8467 18.5 24.25C18.5 23.6533 18.2629 23.081 17.841 22.659C17.419 22.2371 16.8467 22 16.25 22C15.6533 22 15.081 22.2371 14.659 22.659C14.2371 23.081 14 23.6533 14 24.25C14 24.8467 14.2371 25.419 14.659 25.841C15.081 26.2629 15.6533 26.5 16.25 26.5ZM16.25 25.25C15.9848 25.25 15.7304 25.1446 15.5429 24.9571C15.3554 24.7696 15.25 24.5152 15.25 24.25C15.25 23.9848 15.3554 23.7304 15.5429 23.5429C15.7304 23.3554 15.9848 23.25 16.25 23.25C16.5152 23.25 16.7696 23.3554 16.9571 23.5429C17.1446 23.7304 17.25 23.9848 17.25 24.25C17.25 24.5152 17.1446 24.7696 16.9571 24.9571C16.7696 25.1446 16.5152 25.25 16.25 25.25ZM14.625 14C14.4592 14 14.3003 14.0658 14.1831 14.1831C14.0658 14.3003 14 14.4592 14 14.625C14 14.7908 14.0658 14.9497 14.1831 15.0669C14.3003 15.1842 14.4592 15.25 14.625 15.25H25.375C25.5408 15.25 25.6997 15.1842 25.8169 15.0669C25.9342 14.9497 26 14.7908 26 14.625C26 14.4592 25.9342 14.3003 25.8169 14.1831C25.6997 14.0658 25.5408 14 25.375 14H14.625ZM19.5 18.875C19.5 18.53 19.78 18.25 20.125 18.25H25.375C25.5408 18.25 25.6997 18.3158 25.8169 18.4331C25.9342 18.5503 26 18.7092 26 18.875C26 19.0408 25.9342 19.1997 25.8169 19.3169C25.6997 19.4342 25.5408 19.5 25.375 19.5H20.125C19.78 19.5 19.5 19.22 19.5 18.875ZM20.125 23.5C19.9592 23.5 19.8003 23.5658 19.6831 23.6831C19.5658 23.8003 19.5 23.9592 19.5 24.125C19.5 24.2908 19.5658 24.4497 19.6831 24.5669C19.8003 24.6842 19.9592 24.75 20.125 24.75H25.375C25.5408 24.75 25.6997 24.6842 25.8169 24.5669C25.9342 24.4497 26 24.2908 26 24.125C26 23.9592 25.9342 23.8003 25.8169 23.6831C25.6997 23.5658 25.5408 23.5 25.375 23.5H20.125ZM14.125 11C13.2962 11 12.5013 11.3292 11.9153 11.9153C11.3292 12.5013 11 13.2962 11 14.125V25.875C11 26.7038 11.3292 27.4987 11.9153 28.0847C12.5013 28.6708 13.2962 29 14.125 29H25.875C26.7038 29 27.4987 28.6708 28.0847 28.0847C28.6708 27.4987 29 26.7038 29 25.875V14.125C29 13.2962 28.6708 12.5013 28.0847 11.9153C27.4987 11.3292 26.7038 11 25.875 11H14.125ZM12.25 14.125C12.25 13.6277 12.4475 13.1508 12.7992 12.7992C13.1508 12.4475 13.6277 12.25 14.125 12.25H25.875C26.3723 12.25 26.8492 12.4475 27.2008 12.7992C27.5525 13.1508 27.75 13.6277 27.75 14.125V25.875C27.75 26.3723 27.5525 26.8492 27.2008 27.2008C26.8492 27.5525 26.3723 27.75 25.875 27.75H14.125C13.6277 27.75 13.1508 27.5525 12.7992 27.2008C12.4475 26.8492 12.25 26.3723 12.25 25.875V14.125Z" fill="#42526E"/>
</svg>
