<svg width="20" height="20" viewBox="0 0 20 20" fill="none" xmlns="http://www.w3.org/2000/svg">
<path d="M6.4165 13.5837C6.56928 13.7364 6.76373 13.8128 6.99984 13.8128C7.23595 13.8128 7.43039 13.7364 7.58317 13.5837L9.99984 11.167L12.4373 13.6045C12.5901 13.7573 12.7812 13.8303 13.0107 13.8237C13.2401 13.817 13.4309 13.737 13.5832 13.5837C13.7359 13.4309 13.8123 13.2364 13.8123 13.0003C13.8123 12.7642 13.7359 12.5698 13.5832 12.417L11.1665 10.0003L13.604 7.56283C13.7568 7.41005 13.8298 7.21894 13.8232 6.98949C13.8165 6.76005 13.7365 6.56921 13.5832 6.41699C13.4304 6.26421 13.2359 6.18783 12.9998 6.18783C12.7637 6.18783 12.5693 6.26421 12.4165 6.41699L9.99984 8.83366L7.56234 6.39616C7.40956 6.24338 7.21873 6.1706 6.98984 6.17783C6.76095 6.18505 6.56984 6.26477 6.4165 6.41699C6.26373 6.56977 6.18734 6.76421 6.18734 7.00033C6.18734 7.23644 6.26373 7.43088 6.4165 7.58366L8.83317 10.0003L6.39567 12.4378C6.24289 12.5906 6.17011 12.7817 6.17734 13.0112C6.18456 13.2406 6.26428 13.4314 6.4165 13.5837ZM9.99984 18.3337C8.84706 18.3337 7.76373 18.1148 6.74984 17.677C5.73595 17.2392 4.854 16.6456 4.104 15.8962C3.354 15.1462 2.76039 14.2642 2.32317 13.2503C1.88595 12.2364 1.66706 11.1531 1.6665 10.0003C1.6665 8.84755 1.88539 7.76421 2.32317 6.75033C2.76095 5.73644 3.35456 4.85449 4.104 4.10449C4.854 3.35449 5.73595 2.76088 6.74984 2.32366C7.76373 1.88644 8.84706 1.66755 9.99984 1.66699C11.1526 1.66699 12.2359 1.88588 13.2498 2.32366C14.2637 2.76144 15.1457 3.35505 15.8957 4.10449C16.6457 4.85449 17.2396 5.73644 17.6773 6.75033C18.1151 7.76421 18.3337 8.84755 18.3332 10.0003C18.3332 11.1531 18.1143 12.2364 17.6765 13.2503C17.2387 14.2642 16.6451 15.1462 15.8957 15.8962C15.1457 16.6462 14.2637 17.24 13.2498 17.6778C12.2359 18.1156 11.1526 18.3342 9.99984 18.3337ZM9.99984 16.667C11.8471 16.667 13.4201 16.0178 14.719 14.7195C16.0179 13.4212 16.6671 11.8481 16.6665 10.0003C16.6665 8.1531 16.0173 6.58005 14.719 5.28116C13.4207 3.98227 11.8476 3.3331 9.99984 3.33366C8.15262 3.33366 6.57956 3.98283 5.28067 5.28116C3.98178 6.57949 3.33262 8.15255 3.33317 10.0003C3.33317 11.8475 3.98234 13.4206 5.28067 14.7195C6.579 16.0184 8.15206 16.6675 9.99984 16.667Z" fill="#7A869A"/>
</svg>
