<svg width="20" height="20" viewBox="0 0 20 20" fill="none" xmlns="http://www.w3.org/2000/svg">
<path d="M17.9987 9.999V9.995C17.9987 7.62777 16.9681 5.50186 15.3316 4.03993L15.3236 4.03326C15.3034 4.01147 15.2808 3.99202 15.2562 3.97526L15.2549 3.9746C13.8014 2.69834 11.9322 1.99625 9.998 2.00002C7.97684 2.00002 6.13166 2.75065 4.72511 3.98926L4.73377 3.98193C4.71682 3.99479 4.70119 4.0093 4.68711 4.02526C3.84153 4.77402 3.1647 5.69458 2.70145 6.72467C2.2382 7.75476 1.9991 8.87153 2 10.001C2 12.3676 3.02925 14.4935 4.66445 15.9561L4.67245 15.9627C4.69362 15.9868 4.71731 16.0084 4.74311 16.0274L4.74444 16.0281C6.19754 17.3024 8.06528 18.0035 9.998 18C11.9397 18.003 13.8155 17.2954 15.2716 16.0107L15.2629 16.0181C16.1231 15.2701 16.8127 14.3462 17.2849 13.3086C17.7571 12.2711 18.001 11.1443 18 10.0043V9.99967L17.9987 9.999ZM15.0242 15.2021C14.628 14.8816 14.2018 14.5998 13.7517 14.3608L13.7084 14.3395C14.117 13.1615 14.363 11.8036 14.3863 10.391V10.3803H17.2267C17.1309 12.2078 16.3444 13.9307 15.0262 15.2001L15.0242 15.2021ZM10.3806 14.1988C11.2359 14.2448 12.0352 14.4328 12.7724 14.7388L12.7244 14.7215C12.1338 16.0681 11.3026 16.9934 10.3806 17.1967V14.1988ZM10.3806 13.4362V10.3803H13.6257C13.6 11.6458 13.3805 12.8998 12.9751 14.0988L13.0011 14.0115C12.1735 13.6713 11.2932 13.4769 10.3993 13.4369L10.3806 13.4362ZM10.3806 9.61768V6.56182C11.2987 6.51992 12.2025 6.31894 13.0517 5.96784L12.9991 5.98717C13.3691 7.06646 13.5964 8.31041 13.6257 9.60368V9.61768H10.3806ZM10.3806 5.79918V2.80265C11.3026 3.00597 12.1338 3.92726 12.7244 5.27787C12.0352 5.56453 11.2359 5.75185 10.4 5.79852L10.3806 5.79918ZM12.2831 3.13263C13.0686 3.39464 13.8033 3.78971 14.455 4.30058L14.4396 4.28858C14.1443 4.52057 13.813 4.73923 13.4637 4.92922L13.4264 4.94789C13.1441 4.28173 12.756 3.66559 12.2771 3.1233L12.2831 3.13063V3.13263ZM9.6167 2.80465V5.79918C8.79443 5.75723 7.98544 5.5746 7.2249 5.25921L7.27289 5.27654C7.86618 3.92993 8.69611 3.0053 9.61803 2.80198L9.6167 2.80465ZM6.57162 4.94589C6.21027 4.75147 5.86596 4.5269 5.54237 4.27458L5.55837 4.28658C6.19107 3.79071 6.90274 3.40489 7.66353 3.1453L7.71419 3.12997C7.24784 3.65757 6.86785 4.25559 6.58829 4.90189L6.57162 4.94589ZM9.61803 6.56115V9.61702H6.37297C6.4023 8.30974 6.62962 7.06579 7.02558 5.89918L6.99958 5.98651C7.82689 6.32614 8.70664 6.52032 9.60003 6.56048L9.61803 6.56115ZM9.61803 10.3797V13.4355C8.7 13.4774 7.79621 13.6784 6.94692 14.0295L6.99958 14.0102C6.62962 12.9315 6.4023 11.6869 6.37297 10.3937V10.3797H9.61803ZM9.61803 14.1982V17.1947C8.69611 16.9914 7.86485 16.0701 7.27423 14.7195C7.9635 14.4328 8.76277 14.2461 9.5987 14.1995L9.61803 14.1982ZM7.71819 16.8647C6.93289 16.6035 6.19828 16.2093 5.54637 15.6994L5.56237 15.7114C5.85768 15.4794 6.18899 15.2608 6.53829 15.0708L6.57562 15.0521C6.85552 15.7185 7.2436 16.3341 7.72419 16.874L7.71819 16.8674V16.8647ZM13.427 15.0514C13.8137 15.2614 14.145 15.4794 14.4563 15.7228L14.4403 15.7108C13.8076 16.2066 13.0959 16.5924 12.3351 16.852L12.2845 16.8674C12.7508 16.34 13.1308 15.7422 13.4104 15.0961L13.427 15.0528V15.0514ZM17.2267 9.61768H14.3863C14.3659 8.23838 14.1278 6.87094 13.681 5.56586L13.7084 5.65786C14.1793 5.40991 14.6251 5.117 15.0396 4.78323L15.0236 4.79523C16.339 6.05986 17.1258 7.77632 17.2254 9.59835L17.2267 9.61768ZM4.97442 4.79589C5.35839 5.10788 5.78969 5.39387 6.24698 5.63719L6.29031 5.65852C5.88168 6.83647 5.6357 8.19441 5.61237 9.60702V9.61768H2.77127C2.86706 7.79016 3.65363 6.06731 4.97175 4.79789L4.97442 4.79589ZM2.77194 10.3803H5.61237C5.6328 11.7596 5.87082 13.1271 6.31764 14.4321L6.29031 14.3401C5.78969 14.6061 5.35905 14.8921 4.95909 15.2148L4.97509 15.2028C3.65969 13.9381 2.87284 12.2217 2.77327 10.3996L2.77194 10.3803Z" fill="#7A869A"/>
</svg>
