<svg width="40" height="40" viewBox="0 0 40 40" fill="none" xmlns="http://www.w3.org/2000/svg">
<circle cx="20" cy="20" r="20" fill="#F7F7F7"/>
<path d="M19.4375 15.25V16.3125H16.25V15.25H19.4375ZM16.25 18.4375V17.375H19.4375V18.4375H16.25ZM16.25 20.5625V19.5H18.375V20.5625H16.25ZM15.1875 15.25V16.3125H14.125V15.25H15.1875ZM15.1875 17.375V18.4375H14.125V17.375H15.1875ZM14.125 20.5625V19.5H15.1875V20.5625H14.125ZM13.0625 12.0625V26.9375H18.375V28H12V11H21.2554L25.8125 15.5571V17.375H24.75V16.3125H20.5V12.0625H13.0625ZM21.5625 12.8179V15.25H23.9946L21.5625 12.8179ZM26.875 19.5H29V28H19.4375V19.5H21.5625V18.4375H22.625V19.5H25.8125V18.4375H26.875V19.5ZM27.9375 26.9375V22.6875H20.5V26.9375H27.9375ZM27.9375 21.625V20.5625H20.5V21.625H27.9375Z" fill="#42526E"/>
</svg>
